<svg id="Layer_1" data-name="Layer 1" xmlns="http://www.w3.org/2000/svg" viewBox="0 0 2099.06 888.01"><defs><style>.cls-1,.cls-2,.cls-5{fill:#2c333e;}.cls-2{font-size:759.51px;}.cls-2,.cls-6{font-family:Futura-Medium, Futura;font-weight:500;}.cls-3{letter-spacing:0.02em;}.cls-4{letter-spacing:-0.04em;}.cls-5{font-size:115px;font-family:Futura-Bold, Futura;font-weight:700;letter-spacing:0em;}.cls-6{letter-spacing:0em;}</style></defs><g id="aria_logo" data-name="aria logo"><path class="cls-1" d="M1632.56,134.24a54.86,54.86,0,1,1,54.86-54.86v54.86Z" transform="translate(-21.36 81.93)"/><g id="Logo_5" data-name="Logo 5"><path class="cls-1" d="M482.45,512.89H742.71V378.3c0-226.64-206.62-397.08-429.12-354S-37,302.64,47.62,512.89H348.07a147.58,147.58,0,1,1,134.38,0Z" transform="translate(-21.36 81.93)"/><path class="cls-1" d="M664.78,603.28h77.93v-19H87.05q6.78,9.76,14.19,19Z" transform="translate(-21.36 81.93)"/><path class="cls-1" d="M382.13,738.87H742.71v-19H266.54A353.72,353.72,0,0,0,382.13,738.87Z" transform="translate(-21.36 81.93)"/><path class="cls-1" d="M556.92,693.68H742.71v-19h-566a360,360,0,0,0,30.62,19Z" transform="translate(-21.36 81.93)"/><path class="cls-1" d="M620.91,648.48h121.8v-19H123.41q9.61,9.9,19.94,19Z" transform="translate(-21.36 81.93)"/><path class="cls-1" d="M694.68,558.09h48v-19H59.38q4.82,9.68,10.2,19Z" transform="translate(-21.36 81.93)"/><path class="cls-1" d="M266.54,719.84a353.72,353.72,0,0,0,115.59,19H742.71v-19" transform="translate(-21.36 81.93)"/><path class="cls-1" d="M59.38,539.06q4.82,9.68,10.2,19" transform="translate(-21.36 81.93)"/><path class="cls-1" d="M123.41,629.45q9.61,9.9,19.94,19" transform="translate(-21.36 81.93)"/><path class="cls-1" d="M176.73,674.65a360,360,0,0,0,30.62,19" transform="translate(-21.36 81.93)"/><line class="cls-1" x1="721.34" y1="640.01" x2="721.34" y2="620.98"/><line class="cls-1" x1="721.34" y1="685.21" x2="721.34" y2="666.18"/><line class="cls-1" x1="721.34" y1="730.41" x2="721.34" y2="711.38"/><line class="cls-1" x1="721.34" y1="775.6" x2="721.34" y2="756.57"/></g><text class="cls-2" transform="translate(764.29 668.84)">a<tspan class="cls-3" x="455.41" y="0">r</tspan><tspan class="cls-4" x="750.98" y="0">ia</tspan></text><text class="cls-5" transform="translate(791.22 820.38)">SELECT<tspan class="cls-6" x="406.06" y="0" xml:space="preserve"> OFFICE </tspan><tspan x="878.06" y="0">SUITES</tspan></text></g></svg>